<svg xmlns="http://www.w3.org/2000/svg" viewBox="0 0 1200 800" width="1200" height="800">
  <!-- Background -->
  <rect width="1200" height="800" fill="#f3f4f6"/>
  
  <!-- Sidebar Background -->
  <rect x="0" y="0" width="240" height="800" fill="#1e293b"/>
  
  <!-- Header Bar -->
  <rect x="240" y="0" width="960" height="64" fill="#ffffff" stroke="#e5e7eb" stroke-width="1"/>
  
  <!-- Company name area -->
  <rect x="256" y="16" width="300" height="32" rx="4" fill="#ffffff"/>
  <text x="260" y="37" font-family="Arial" font-size="16" font-weight="bold" fill="#111827">Acme Corporation</text>
  
  <!-- User menu area -->
  <circle cx="1130" cy="32" r="20" fill="#3b82f6"/>
  <text x="1130" y="37" font-family="Arial" font-size="14" font-weight="bold" fill="white" text-anchor="middle">AC</text>
  
  <!-- Dark/Light toggle -->
  <circle cx="1070" cy="32" r="16" fill="#f3f4f6" stroke="#d1d5db" stroke-width="1"/>
  <path d="M1070 24 L1070 40 M1062 32 L1078 32" stroke="#9ca3af" stroke-width="2" stroke-linecap="round"/>
  
  <!-- Sidebar Logo -->
  <rect x="32" y="24" width="176" height="32" rx="4" fill="#1e293b"/>
  <text x="32" y="46" font-family="Arial" font-size="20" font-weight="bold" fill="#ffffff">Airiam RAG</text>
  
  <!-- Sidebar Navigation -->
  <rect x="16" y="100" width="208" height="40" rx="4" fill="#1e293b"/>
  <text x="56" y="125" font-family="Arial" font-size="14" fill="#94a3b8">Dashboard</text>
  <rect x="24" y="110" width="20" height="20" fill="none" stroke="#94a3b8" stroke-width="2"/>
  
  <rect x="16" y="150" width="208" height="40" rx="4" fill="#1e293b"/>
  <text x="56" y="175" font-family="Arial" font-size="14" fill="#94a3b8">Chat</text>
  <rect x="24" y="160" width="20" height="20" rx="10" fill="none" stroke="#94a3b8" stroke-width="2"/>
  
  <rect x="16" y="200" width="208" height="40" rx="4" fill="#1e293b"/>
  <text x="56" y="225" font-family="Arial" font-size="14" fill="#94a3b8">File Analysis</text>
  <rect x="24" y="210" width="20" height="20" fill="none" stroke="#94a3b8" stroke-width="2"/>
  
  <rect x="16" y="250" width="208" height="40" rx="4" fill="#1e293b"/>
  <text x="56" y="275" font-family="Arial" font-size="14" fill="#94a3b8">Analytics</text>
  <path d="M24 220 L44 230 L34 250" fill="none" stroke="#94a3b8" stroke-width="2"/>
  
  <!-- Divider for Admin -->
  <line x1="32" y1="310" x2="208" y2="310" stroke="#475569" stroke-width="1"/>
  
  <rect x="16" y="330" width="208" height="40" rx="4" fill="#2563eb"/>
  <text x="56" y="355" font-family="Arial" font-size="14" fill="#ffffff">Admin Dashboard</text>
  <rect x="24" y="340" width="20" height="20" fill="none" stroke="#ffffff" stroke-width="2"/>
  
  <rect x="16" y="380" width="208" height="40" rx="4" fill="#1e293b"/>
  <text x="56" y="405" font-family="Arial" font-size="14" fill="#94a3b8">User Management</text>
  <rect x="24" y="390" width="20" height="20" fill="none" stroke="#94a3b8" stroke-width="2"/>
  
  <!-- Footer profile in Sidebar -->
  <rect x="16" y="720" width="208" height="64" fill="#1e293b" stroke="#475569" stroke-width="1"/>
  <circle cx="40" cy="752" r="20" fill="#3b82f6"/>
  <text x="40" y="757" font-family="Arial" font-size="14" font-weight="bold" fill="white" text-anchor="middle">AC</text>
  <text x="70" y="747" font-family="Arial" font-size="14" fill="#ffffff">Admin User</text>
  <text x="70" y="767" font-family="Arial" font-size="12" fill="#94a3b8">View profile</text>
  
  <!-- Main Content Area - Admin Dashboard -->
  <rect x="256" y="80" width="928" height="704" rx="0" fill="#f3f4f6"/>
  
  <!-- Page Header -->
  <text x="272" y="120" font-family="Arial" font-size="24" font-weight="bold" fill="#111827">Admin Dashboard</text>
  <text x="272" y="150" font-family="Arial" font-size="14" fill="#6b7280">Manage tenants, users, and system settings</text>
  
  <!-- Action Buttons -->
  <rect x="900" y="110" width="140" height="40" rx="6" fill="#2563eb"/>
  <text x="970" y="135" font-family="Arial" font-size="14" fill="#ffffff" font-weight="bold" text-anchor="middle">Add Tenant</text>
  <text x="930" y="135" font-family="Arial" font-size="14" fill="#ffffff" font-weight="bold">+</text>
  
  <rect x="1050" y="110" width="120" height="40" rx="6" fill="#ffffff" stroke="#d1d5db" stroke-width="1"/>
  <text x="1110" y="135" font-family="Arial" font-size="14" fill="#374151" font-weight="bold" text-anchor="middle">Refresh</text>
  
  <!-- Tenant Management Card -->
  <rect x="272" y="180" width="600" height="320" rx="8" fill="#ffffff" stroke="#e5e7eb" stroke-width="1"/>
  <text x="296" y="216" font-family="Arial" font-size="18" font-weight="bold" fill="#111827">Tenant Management</text>
  
  <!-- Tenant Search -->
  <rect x="296" y="236" width="320" height="40" rx="4" fill="#ffffff" stroke="#d1d5db" stroke-width="1"/>
  <text x="320" y="261" font-family="Arial" font-size="14" fill="#9ca3af">Search tenants...</text>
  
  <!-- Tenant Table Header -->
  <rect x="296" y="290" width="552" height="40" fill="#f9fafb"/>
  <text x="320" y="315" font-family="Arial" font-size="14" font-weight="bold" fill="#374151">Name</text>
  <line x1="400" y1="290" x2="400" y2="330" stroke="#e5e7eb" stroke-width="1"/>
  <text x="420" y="315" font-family="Arial" font-size="14" font-weight="bold" fill="#374151">Users</text>
  <line x1="480" y1="290" x2="480" y2="330" stroke="#e5e7eb" stroke-width="1"/>
  <text x="500" y="315" font-family="Arial" font-size="14" font-weight="bold" fill="#374151">Credits</text>
  <line x1="580" y1="290" x2="580" y2="330" stroke="#e5e7eb" stroke-width="1"/>
  <text x="600" y="315" font-family="Arial" font-size="14" font-weight="bold" fill="#374151">Status</text>
  <line x1="680" y1="290" x2="680" y2="330" stroke="#e5e7eb" stroke-width="1"/>
  <text x="710" y="315" font-family="Arial" font-size="14" font-weight="bold" fill="#374151">Actions</text>
  
  <!-- Tenant Table Rows -->
  <rect x="296" y="330" width="552" height="50" fill="#ffffff"/>
  <line x1="296" y1="380" x2="848" y2="380" stroke="#e5e7eb" stroke-width="1"/>
  <text x="320" y="360" font-family="Arial" font-size="14" fill="#111827">Acme Corporation</text>
  <line x1="400" y1="330" x2="400" y2="380" stroke="#e5e7eb" stroke-width="1"/>
  <text x="420" y="360" font-family="Arial" font-size="14" fill="#111827">42</text>
  <line x1="480" y1="330" x2="480" y2="380" stroke="#e5e7eb" stroke-width="1"/>
  <text x="500" y="360" font-family="Arial" font-size="14" fill="#111827">8,500 / 10,000</text>
  <line x1="580" y1="330" x2="580" y2="380" stroke="#e5e7eb" stroke-width="1"/>
  <rect x="600" y="345" width="70" height="24" rx="12" fill="#dcfce7"/>
  <text x="635" y="362" font-family="Arial" font-size="12" fill="#16a34a" text-anchor="middle">Active</text>
  <line x1="680" y1="330" x2="680" y2="380" stroke="#e5e7eb" stroke-width="1"/>
  <rect x="690" y="345" width="36" height="24" rx="4" fill="#eff6ff" stroke="#dbeafe" stroke-width="1"/>
  <text x="708" y="362" font-family="Arial" font-size="12" fill="#2563eb" text-anchor="middle">Edit</text>
  <rect x="734" y="345" width="50" height="24" rx="4" fill="#eff6ff" stroke="#dbeafe" stroke-width="1"/>
  <text x="759" y="362" font-family="Arial" font-size="12" fill="#2563eb" text-anchor="middle">Users</text>
  <rect x="792" y="345" width="36" height="24" rx="4" fill="#fef2f2" stroke="#fee2e2" stroke-width="1"/>
  <text x="810" y="362" font-family="Arial" font-size="12" fill="#dc2626" text-anchor="middle">Del</text>
  
  <rect x="296" y="380" width="552" height="50" fill="#ffffff"/>
  <line x1="296" y1="430" x2="848" y2="430" stroke="#e5e7eb" stroke-width="1"/>
  <text x="320" y="410" font-family="Arial" font-size="14" fill="#111827">TechNova Solutions</text>
  <line x1="400" y1="380" x2="400" y2="430" stroke="#e5e7eb" stroke-width="1"/>
  <text x="420" y="410" font-family="Arial" font-size="14" fill="#111827">17</text>
  <line x1="480" y1="380" x2="480" y2="430" stroke="#e5e7eb" stroke-width="1"/>
  <text x="500" y="410" font-family="Arial" font-size="14" fill="#111827">2,340 / 5,000</text>
  <line x1="580" y1="380" x2="580" y2="430" stroke="#e5e7eb" stroke-width="1"/>
  <rect x="600" y="395" width="70" height="24" rx="12" fill="#dcfce7"/>
  <text x="635" y="412" font-family="Arial" font-size="12" fill="#16a34a" text-anchor="middle">Active</text>
  <line x1="680" y1="380" x2="680" y2="430" stroke="#e5e7eb" stroke-width="1"/>
  <rect x="690" y="395" width="36" height="24" rx="4" fill="#eff6ff" stroke="#dbeafe" stroke-width="1"/>
  <text x="708" y="412" font-family="Arial" font-size="12" fill="#2563eb" text-anchor="middle">Edit</text>
  <rect x="734" y="395" width="50" height="24" rx="4" fill="#eff6ff" stroke="#dbeafe" stroke-width="1"/>
  <text x="759" y="412" font-family="Arial" font-size="12" fill="#2563eb" text-anchor="middle">Users</text>
  <rect x="792" y="395" width="36" height="24" rx="4" fill="#fef2f2" stroke="#fee2e2" stroke-width="1"/>
  <text x="810" y="412" font-family="Arial" font-size="12" fill="#dc2626" text-anchor="middle">Del</text>
  
  <rect x="296" y="430" width="552" height="50" fill="#ffffff"/>
  <line x1="296" y1="480" x2="848" y2="480" stroke="#e5e7eb" stroke-width="1"/>
  <text x="320" y="460" font-family="Arial" font-size="14" fill="#111827">GlobalMed Research</text>
  <line x1="400" y1="430" x2="400" y2="480" stroke="#e5e7eb" stroke-width="1"/>
  <text x="420" y="460" font-family="Arial" font-size="14" fill="#111827">28</text>
  <line x1="480" y1="430" x2="480" y2="480" stroke="#e5e7eb" stroke-width="1"/>
  <text x="500" y="460" font-family="Arial" font-size="14" fill="#111827">4,750 / 10,000</text>
  <line x1="580" y1="430" x2="580" y2="480" stroke="#e5e7eb" stroke-width="1"/>
  <rect x="600" y="445" width="70" height="24" rx="12" fill="#ffedd5"/>
  <text x="635" y="462" font-family="Arial" font-size="12" fill="#c2410c" text-anchor="middle">Trial</text>
  <line x1="680" y1="430" x2="680" y2="480" stroke="#e5e7eb" stroke-width="1"/>
  <rect x="690" y="445" width="36" height="24" rx="4" fill="#eff6ff" stroke="#dbeafe" stroke-width="1"/>
  <text x="708" y="462" font-family="Arial" font-size="12" fill="#2563eb" text-anchor="middle">Edit</text>
  <rect x="734" y="445" width="50" height="24" rx="4" fill="#eff6ff" stroke="#dbeafe" stroke-width="1"/>
  <text x="759" y="462" font-family="Arial" font-size="12" fill="#2563eb" text-anchor="middle">Users</text>
  <rect x="792" y="445" width="36" height="24" rx="4" fill="#fef2f2" stroke="#fee2e2" stroke-width="1"/>
  <text x="810" y="462" font-family="Arial" font-size="12" fill="#dc2626" text-anchor="middle">Del</text>
  
  <!-- System Stats Card -->
  <rect x="888" y="180" width="312" height="320" rx="8" fill="#ffffff" stroke="#e5e7eb" stroke-width="1"/>
  <text x="912" y="216" font-family="Arial" font-size="18" font-weight="bold" fill="#111827">System Status</text>
  
  <!-- System Stats -->
  <rect x="912" y="236" width="264" height="80" rx="4" fill="#f9fafb"/>
  <rect x="928" y="252" width="48" height="48" rx="8" fill="#eff6ff"/>
  <text x="952" y="282" font-family="Arial" font-size="18" fill="#3b82f6" text-anchor="middle">👥</text>
  <text x="986" y="264" font-family="Arial" font-size="14" fill="#6b7280">Total Users</text>
  <text x="986" y="290" font-family="Arial" font-size="20" font-weight="bold" fill="#111827">487</text>
  
  <rect x="912" y="326" width="264" height="80" rx="4" fill="#f9fafb"/>
  <rect x="928" y="342" width="48" height="48" rx="8" fill="#f0fdf4"/>
  <text x="952" y="372" font-family="Arial" font-size="18" fill="#10b981" text-anchor="middle">💬</text>
  <text x="986" y="354" font-family="Arial" font-size="14" fill="#6b7280">Active Chats (24h)</text>
  <text x="986" y="380" font-family="Arial" font-size="20" font-weight="bold" fill="#111827">152</text>
  
  <rect x="912" y="416" width="264" height="80" rx="4" fill="#f9fafb"/>
  <rect x="928" y="432" width="48" height="48" rx="8" fill="#fdf2f8"/>
  <text x="952" y="462" font-family="Arial" font-size="18" fill="#ec4899" text-anchor="middle">📈</text>
  <text x="986" y="444" font-family="Arial" font-size="14" fill="#6b7280">API Requests (24h)</text>
  <text x="986" y="470" font-family="Arial" font-size="20" font-weight="bold" fill="#111827">12,543</text>
  
  <!-- Recent Logs Card -->
  <rect x="272" y="520" width="928" height="260" rx="8" fill="#ffffff" stroke="#e5e7eb" stroke-width="1"/>
  <text x="296" y="556" font-family="Arial" font-size="18" font-weight="bold" fill="#111827">Recent System Logs</text>
  
  <!-- Log Table Header -->
  <rect x="296" y="576" width="880" height="40" fill="#f9fafb"/>
  <text x="320" y="601" font-family="Arial" font-size="14" font-weight="bold" fill="#374151">Timestamp</text>
  <line x1="440" y1="576" x2="440" y2="616" stroke="#e5e7eb" stroke-width="1"/>
  <text x="460" y="601" font-family="Arial" font-size="14" font-weight="bold" fill="#374151">Tenant</text>
  <line x1="580" y1="576" x2="580" y2="616" stroke="#e5e7eb" stroke-width="1"/>
  <text x="600" y="601" font-family="Arial" font-size="14" font-weight="bold" fill="#374151">Event</text>
  <line x1="800" y1="576" x2="800" y2="616" stroke="#e5e7eb" stroke-width="1"/>
  <text x="820" y="601" font-family="Arial" font-size="14" font-weight="bold" fill="#374151">User</text>
  <line x1="920" y1="576" x2="920" y2="616" stroke="#e5e7eb" stroke-width="1"/>
  <text x="940" y="601" font-family="Arial" font-size="14" font-weight="bold" fill="#374151">IP Address</text>
  
  <!-- Log Table Rows -->
  <rect x="296" y="616" width="880" height="40" fill="#ffffff"/>
  <line x1="296" y1="656" x2="1176" y2="656" stroke="#e5e7eb" stroke-width="1"/>
  <text x="320" y="641" font-family="Arial" font-size="14" fill="#111827">2023-09-15 13:42:18</text>
  <line x1="440" y1="616" x2="440" y2="656" stroke="#e5e7eb" stroke-width="1"/>
  <text x="460" y="641" font-family="Arial" font-size="14" fill="#111827">Acme Corporation</text>
  <line x1="580" y1="616" x2="580" y2="656" stroke="#e5e7eb" stroke-width="1"/>
  <text x="600" y="641" font-family="Arial" font-size="14" fill="#111827">User Login</text>
  <line x1="800" y1="616" x2="800" y2="656" stroke="#e5e7eb" stroke-width="1"/>
  <text x="820" y="641" font-family="Arial" font-size="14" fill="#111827">john.smith@acme.com</text>
  <line x1="920" y1="616" x2="920" y2="656" stroke="#e5e7eb" stroke-width="1"/>
  <text x="940" y="641" font-family="Arial" font-size="14" fill="#111827">192.168.1.105</text>
  
  <rect x="296" y="656" width="880" height="40" fill="#ffffff"/>
  <line x1="296" y1="696" x2="1176" y2="696" stroke="#e5e7eb" stroke-width="1"/>
  <text x="320" y="681" font-family="Arial" font-size="14" fill="#111827">2023-09-15 13:40:52</text>
  <line x1="440" y1="656" x2="440" y2="696" stroke="#e5e7eb" stroke-width="1"/>
  <text x="460" y="681" font-family="Arial" font-size="14" fill="#111827">TechNova Solutions</text>
  <line x1="580" y1="656" x2="580" y2="696" stroke="#e5e7eb" stroke-width="1"/>
  <text x="600" y="681" font-family="Arial" font-size="14" fill="#111827">File Upload</text>
  <line x1="800" y1="656" x2="800" y2="696" stroke="#e5e7eb" stroke-width="1"/>
  <text x="820" y="681" font-family="Arial" font-size="14" fill="#111827">sarah.kim@technova.co</text>
  <line x1="920" y1="656" x2="920" y2="696" stroke="#e5e7eb" stroke-width="1"/>
  <text x="940" y="681" font-family="Arial" font-size="14" fill="#111827">192.168.4.221</text>
  
  <rect x="296" y="696" width="880" height="40" fill="#ffffff"/>
  <line x1="296" y1="736" x2="1176" y2="736" stroke="#e5e7eb" stroke-width="1"/>
  <text x="320" y="721" font-family="Arial" font-size="14" fill="#111827">2023-09-15 13:35:19</text>
  <line x1="440" y1="696" x2="440" y2="736" stroke="#e5e7eb" stroke-width="1"/>
  <text x="460" y="721" font-family="Arial" font-size="14" fill="#111827">GlobalMed Research</text>
  <line x1="580" y1="696" x2="580" y2="736" stroke="#e5e7eb" stroke-width="1"/>
  <text x="600" y="721" font-family="Arial" font-size="14" fill="#dc2626">API Error (Rate Limit)</text>
  <line x1="800" y1="696" x2="800" y2="736" stroke="#e5e7eb" stroke-width="1"/>
  <text x="820" y="721" font-family="Arial" font-size="14" fill="#111827">api_service@globalmed.org</text>
  <line x1="920" y1="696" x2="920" y2="736" stroke="#e5e7eb" stroke-width="1"/>
  <text x="940" y="721" font-family="Arial" font-size="14" fill="#111827">205.134.224.41</text>
  
  <rect x="296" y="736" width="880" height="40" fill="#ffffff"/>
  <text x="320" y="761" font-family="Arial" font-size="14" fill="#111827">2023-09-15 13:32:05</text>
  <line x1="440" y1="736" x2="440" y2="776" stroke="#e5e7eb" stroke-width="1"/>
  <text x="460" y="761" font-family="Arial" font-size="14" fill="#111827">Acme Corporation</text>
  <line x1="580" y1="736" x2="580" y2="776" stroke="#e5e7eb" stroke-width="1"/>
  <text x="600" y="761" font-family="Arial" font-size="14" fill="#111827">User Added</text>
  <line x1="800" y1="736" x2="800" y2="776" stroke="#e5e7eb" stroke-width="1"/>
  <text x="820" y="761" font-family="Arial" font-size="14" fill="#111827">admin@acme.com</text>
  <line x1="920" y1="736" x2="920" y2="776" stroke="#e5e7eb" stroke-width="1"/>
  <text x="940" y="761" font-family="Arial" font-size="14" fill="#111827">192.168.1.10</text>
</svg>
