<svg xmlns="http://www.w3.org/2000/svg" viewBox="0 0 1200 800" width="1200" height="800">
  <!-- Background -->
  <rect width="1200" height="800" fill="#f3f4f6"/>
  
  <!-- Sidebar Background -->
  <rect x="0" y="0" width="240" height="800" fill="#1e293b"/>
  
  <!-- Header Bar -->
  <rect x="240" y="0" width="960" height="64" fill="#ffffff" stroke="#e5e7eb" stroke-width="1"/>
  
  <!-- Company name area -->
  <rect x="256" y="16" width="300" height="32" rx="4" fill="#ffffff"/>
  <text x="260" y="37" font-family="Arial" font-size="16" font-weight="bold" fill="#111827">Acme Corporation</text>
  
  <!-- User menu area -->
  <circle cx="1130" cy="32" r="20" fill="#3b82f6"/>
  <text x="1130" y="37" font-family="Arial" font-size="14" font-weight="bold" fill="white" text-anchor="middle">AC</text>
  
  <!-- Dark/Light toggle -->
  <circle cx="1070" cy="32" r="16" fill="#f3f4f6" stroke="#d1d5db" stroke-width="1"/>
  <path d="M1070 24 L1070 40 M1062 32 L1078 32" stroke="#9ca3af" stroke-width="2" stroke-linecap="round"/>
  
  <!-- Sidebar Logo -->
  <rect x="32" y="24" width="176" height="32" rx="4" fill="#1e293b"/>
  <text x="32" y="46" font-family="Arial" font-size="20" font-weight="bold" fill="#ffffff">Airiam RAG</text>
  
  <!-- Sidebar Navigation -->
  <rect x="16" y="100" width="208" height="40" rx="4" fill="#1e293b"/>
  <text x="56" y="125" font-family="Arial" font-size="14" fill="#94a3b8">Dashboard</text>
  <rect x="24" y="110" width="20" height="20" fill="none" stroke="#94a3b8" stroke-width="2"/>
  
  <rect x="16" y="150" width="208" height="40" rx="4" fill="#2563eb"/>
  <text x="56" y="175" font-family="Arial" font-size="14" fill="#ffffff">Chat</text>
  <rect x="24" y="160" width="20" height="20" rx="10" fill="none" stroke="#ffffff" stroke-width="2"/>
  
  <rect x="16" y="200" width="208" height="40" rx="4" fill="#1e293b"/>
  <text x="56" y="225" font-family="Arial" font-size="14" fill="#94a3b8">File Analysis</text>
  <rect x="24" y="210" width="20" height="20" fill="none" stroke="#94a3b8" stroke-width="2"/>
  
  <rect x="16" y="250" width="208" height="40" rx="4" fill="#1e293b"/>
  <text x="56" y="275" font-family="Arial" font-size="14" fill="#94a3b8">Analytics</text>
  <path d="M24 220 L44 230 L34 250" fill="none" stroke="#94a3b8" stroke-width="2"/>
  
  <!-- Chat Sidebar Content -->
  <rect x="16" y="320" width="208" height="50" rx="4" fill="#1e293b"/>
  <rect x="32" y="335" width="176" height="30" rx="4" fill="#2563eb"/>
  <text x="120" y="354" font-family="Arial" font-size="14" fill="#ffffff" text-anchor="middle">+ New Chat</text>
  
  <!-- Chat History -->
  <rect x="16" y="380" width="208" height="50" rx="4" fill="#0f172a"/>
  <circle cx="28" cy="405" r="8" fill="#bfdbfe"/>
  <text x="44" y="399" font-family="Arial" font-size="14" fill="#f8fafc">Product Research</text>
  <text x="44" y="418" font-family="Arial" font-size="11" fill="#94a3b8">10:23 AM</text>
  
  <rect x="16" y="440" width="208" height="50" rx="4" fill="#1e293b"/>
  <circle cx="28" cy="465" r="8" fill="#bfdbfe"/>
  <text x="44" y="459" font-family="Arial" font-size="14" fill="#f8fafc">Financial Report Analysis</text>
  <text x="44" y="478" font-family="Arial" font-size="11" fill="#94a3b8">Yesterday</text>
  
  <rect x="16" y="500" width="208" height="50" rx="4" fill="#1e293b"/>
  <circle cx="28" cy="525" r="8" fill="#bfdbfe"/>
  <text x="44" y="519" font-family="Arial" font-size="14" fill="#f8fafc">Tech Requirements</text>
  <text x="44" y="538" font-family="Arial" font-size="11" fill="#94a3b8">Sep 15</text>
  
  <rect x="16" y="560" width="208" height="50" rx="4" fill="#1e293b"/>
  <circle cx="28" cy="585" r="8" fill="#bfdbfe"/>
  <text x="44" y="579" font-family="Arial" font-size="14" fill="#f8fafc">Customer Survey</text>
  <text x="44" y="598" font-family="Arial" font-size="11" fill="#94a3b8">Sep 12</text>
  
  <!-- Footer profile in Sidebar -->
  <rect x="16" y="720" width="208" height="64" fill="#1e293b" stroke="#475569" stroke-width="1"/>
  <circle cx="40" cy="752" r="20" fill="#3b82f6"/>
  <text x="40" y="757" font-family="Arial" font-size="14" font-weight="bold" fill="white" text-anchor="middle">AC</text>
  <text x="70" y="747" font-family="Arial" font-size="14" fill="#ffffff">Admin User</text>
  <text x="70" y="767" font-family="Arial" font-size="12" fill="#94a3b8">View profile</text>
  
  <!-- Main Chat Area Background -->
  <rect x="240" y="64" width="960" height="736" fill="#ffffff"/>
  
  <!-- Chat Header -->
  <rect x="240" y="64" width="960" height="60" fill="#f8fafc" stroke="#e5e7eb" stroke-width="1"/>
  <text x="270" y="102" font-family="Arial" font-size="18" font-weight="bold" fill="#111827">Product Research</text>
  
  <!-- Chat Messages Area -->
  <rect x="240" y="124" width="960" height="580" fill="#ffffff" stroke="#e5e7eb" stroke-width="1"/>
  
  <!-- AI Message -->
  <circle cx="280" cy="170" r="24" fill="#dbeafe"/>
  <text x="280" y="175" font-family="Arial" font-size="16" font-weight="bold" fill="#2563eb" text-anchor="middle">AI</text>
  <rect x="320" y="146" width="650" height="80" rx="10" fill="#f1f5f9"/>
  <text x="340" y="170" font-family="Arial" font-size="14" fill="#1e293b">Hello! I'm your AI assistant. How can I help with your product research today?</text>
  <text x="340" y="200" font-family="Arial" font-size="14" fill="#1e293b">Feel free to ask me anything about our existing products or ideas for new ones.</text>
  <text x="980" y="210" font-family="Arial" font-size="12" fill="#94a3b8">10:20 AM</text>
  
  <!-- User Message -->
  <circle cx="1120" cy="280" r="24" fill="#2563eb"/>
  <text x="1120" y="285" font-family="Arial" font-size="16" font-weight="bold" fill="#ffffff" text-anchor="middle">AC</text>
  <rect x="530" y="256" width="570" height="50" rx="10" fill="#dbeafe"/>
  <text x="550" y="285" font-family="Arial" font-size="14" fill="#1e40af">I need to analyze our competitor's new product features and compare them with ours.</text>
  <text x="520" y="320" font-family="Arial" font-size="12" fill="#94a3b8" text-anchor="end">10:21 AM</text>
  
  <!-- AI Message with document references -->
  <circle cx="280" cy="390" r="24" fill="#dbeafe"/>
  <text x="280" y="395" font-family="Arial" font-size="16" font-weight="bold" fill="#2563eb" text-anchor="middle">AI</text>
  <rect x="320" y="350" width="680" height="140" rx="10" fill="#f1f5f9"/>
  <text x="340" y="375" font-family="Arial" font-size="14" fill="#1e293b">I'd be happy to help! Based on our market analysis documents, I've identified the following key features from competitors:</text>
  
  <rect x="340" y="390" width="640" height="80" rx="4" fill="#ffffff" stroke="#e2e8f0" stroke-width="1"/>
  <rect x="350" y="400" width="16" height="20" fill="#e0e7ff"/>
  <text x="358" y="415" font-family="Arial" font-size="12" fill="#4f46e5" text-anchor="middle">📄</text>
  <text x="380" y="415" font-family="Arial" font-size="14" font-weight="bold" fill="#1e293b">From Market_Analysis_2023.pdf:</text>
  <text x="380" y="440" font-family="Arial" font-size="13" fill="#334155">"Company X has introduced AI-driven personalization features with 92% accuracy, while our current solution is at 87% accuracy..."</text>
  <text x="980" y="475" font-family="Arial" font-size="12" fill="#94a3b8">10:23 AM</text>
  
  <!-- User Message -->
  <circle cx="1120" cy="540" r="24" fill="#2563eb"/>
  <text x="1120" y="545" font-family="Arial" font-size="16" font-weight="bold" fill="#ffffff" text-anchor="middle">AC</text>
  <rect x="740" y="516" width="360" height="50" rx="10" fill="#dbeafe"/>
  <text x="760" y="545" font-family="Arial" font-size="14" fill="#1e40af">Great, can you also analyze the pricing models?</text>
  <text x="730" y="580" font-family="Arial" font-size="12" fill="#94a3b8" text-anchor="end">10:25 AM</text>
  
  <!-- AI Typing Indicator -->
  <circle cx="280" cy="630" r="24" fill="#dbeafe"/>
  <text x="280" y="635" font-family="Arial" font-size="16" font-weight="bold" fill="#2563eb" text-anchor="middle">AI</text>
  <rect x="320" y="610" width="150" height="40" rx="10" fill="#f1f5f9"/>
  <circle cx="350" cy="630" r="5" fill="#94a3b8"/>
  <circle cx="380" cy="630" r="5" fill="#94a3b8"/>
  <circle cx="410" cy="630" r="5" fill="#94a3b8"/>
  
  <!-- Chat Input Area -->
  <rect x="240" y="704" width="960" height="96" fill="#f8fafc" stroke="#e5e7eb" stroke-width="1"/>
  <rect x="270" y="724" width="800" height="56" rx="8" fill="#ffffff" stroke="#d1d5db" stroke-width="1"/>
  <text x="294" y="758" font-family="Arial" font-size="14" fill="#9ca3af">Type your message here...</text>
  
  <!-- File/Reference Selection Button -->
  <rect x="1080" y="724" width="90" height="56" rx="8" fill="#dbeafe" stroke="#93c5fd" stroke-width="1"/>
  <text x="1125" y="758" font-family="Arial" font-size="12" fill="#1e40af" text-anchor="middle">@files</text>
</svg>
