<svg xmlns="http://www.w3.org/2000/svg" viewBox="0 0 1200 800" width="1200" height="800">
  <!-- Background -->
  <rect width="1200" height="800" fill="#f3f4f6"/>
  
  <!-- Sidebar Background -->
  <rect x="0" y="0" width="240" height="800" fill="#1e293b"/>
  
  <!-- Header Bar -->
  <rect x="240" y="0" width="960" height="64" fill="#ffffff" stroke="#e5e7eb" stroke-width="1"/>
  
  <!-- Company name area -->
  <rect x="256" y="16" width="300" height="32" rx="4" fill="#ffffff"/>
  <text x="260" y="37" font-family="Arial" font-size="16" font-weight="bold" fill="#111827">Acme Corporation</text>
  
  <!-- User menu area -->
  <circle cx="1130" cy="32" r="20" fill="#3b82f6"/>
  <text x="1130" y="37" font-family="Arial" font-size="14" font-weight="bold" fill="white" text-anchor="middle">AC</text>
  
  <!-- Dark/Light toggle -->
  <circle cx="1070" cy="32" r="16" fill="#f3f4f6" stroke="#d1d5db" stroke-width="1"/>
  <path d="M1070 24 L1070 40 M1062 32 L1078 32" stroke="#9ca3af" stroke-width="2" stroke-linecap="round"/>
  
  <!-- Sidebar Logo -->
  <rect x="32" y="24" width="176" height="32" rx="4" fill="#1e293b"/>
  <text x="32" y="46" font-family="Arial" font-size="20" font-weight="bold" fill="#ffffff">Airiam RAG</text>
  
  <!-- Sidebar Navigation -->
  <rect x="16" y="100" width="208" height="40" rx="4" fill="#2563eb"/>
  <text x="56" y="125" font-family="Arial" font-size="14" fill="#ffffff">Dashboard</text>
  <rect x="24" y="110" width="20" height="20" fill="none" stroke="#ffffff" stroke-width="2"/>
  
  <rect x="16" y="150" width="208" height="40" rx="4" fill="#1e293b"/>
  <text x="56" y="175" font-family="Arial" font-size="14" fill="#94a3b8">Chat</text>
  <rect x="24" y="160" width="20" height="20" rx="10" fill="none" stroke="#94a3b8" stroke-width="2"/>
  
  <rect x="16" y="200" width="208" height="40" rx="4" fill="#1e293b"/>
  <text x="56" y="225" font-family="Arial" font-size="14" fill="#94a3b8">File Analysis</text>
  <rect x="24" y="210" width="20" height="20" fill="none" stroke="#94a3b8" stroke-width="2"/>
  
  <rect x="16" y="250" width="208" height="40" rx="4" fill="#1e293b"/>
  <text x="56" y="275" font-family="Arial" font-size="14" fill="#94a3b8">Analytics</text>
  <path d="M24 220 L44 230 L34 250" fill="none" stroke="#94a3b8" stroke-width="2"/>
  
  <!-- Divider for Admin -->
  <line x1="32" y1="310" x2="208" y2="310" stroke="#475569" stroke-width="1"/>
  
  <rect x="16" y="330" width="208" height="40" rx="4" fill="#1e293b"/>
  <text x="56" y="355" font-family="Arial" font-size="14" fill="#94a3b8">Admin</text>
  <rect x="24" y="340" width="20" height="20" fill="none" stroke="#94a3b8" stroke-width="2"/>
  
  <!-- Footer profile in Sidebar -->
  <rect x="16" y="720" width="208" height="64" fill="#1e293b" stroke="#475569" stroke-width="1"/>
  <circle cx="40" cy="752" r="20" fill="#3b82f6"/>
  <text x="40" y="757" font-family="Arial" font-size="14" font-weight="bold" fill="white" text-anchor="middle">AC</text>
  <text x="70" y="747" font-family="Arial" font-size="14" fill="#ffffff">Admin User</text>
  <text x="70" y="767" font-family="Arial" font-size="12" fill="#94a3b8">View profile</text>
  
  <!-- Main Content Area - Dashboard -->
  <rect x="256" y="80" width="928" height="704" rx="0" fill="#f3f4f6"/>
  
  <!-- Page Header -->
  <text x="272" y="120" font-family="Arial" font-size="24" font-weight="bold" fill="#111827">Dashboard</text>
  <text x="272" y="150" font-family="Arial" font-size="14" fill="#6b7280">Your AI assistant usage and activity overview</text>
  
  <!-- Stats Cards Row -->
  <rect x="272" y="180" width="280" height="140" rx="8" fill="#ffffff" stroke="#e5e7eb" stroke-width="1"/>
  <rect x="290" y="200" width="40" height="40" rx="8" fill="#dbeafe"/>
  <text x="310" y="225" font-family="Arial" font-size="16" fill="#2563eb" font-weight="bold" text-anchor="middle">?</text>
  <text x="346" y="215" font-family="Arial" font-size="14" fill="#6b7280">Total Queries</text>
  <text x="346" y="245" font-family="Arial" font-size="24" font-weight="bold" fill="#111827">1,254</text>
  <line x1="272" y1="280" x2="552" y2="280" stroke="#e5e7eb" stroke-width="1"/>
  <text x="346" y="305" font-family="Arial" font-size="12" fill="#10b981">↑ 12%</text>
  <text x="380" y="305" font-family="Arial" font-size="12" fill="#6b7280">from previous period</text>
  
  <rect x="568" y="180" width="280" height="140" rx="8" fill="#ffffff" stroke="#e5e7eb" stroke-width="1"/>
  <rect x="586" y="200" width="40" height="40" rx="8" fill="#e0e7ff"/>
  <text x="606" y="225" font-family="Arial" font-size="16" fill="#4f46e5" font-weight="bold" text-anchor="middle">$</text>
  <text x="642" y="215" font-family="Arial" font-size="14" fill="#6b7280">Credit Consumption</text>
  <text x="642" y="245" font-family="Arial" font-size="24" font-weight="bold" fill="#111827">578/1000</text>
  <line x1="568" y1="280" x2="848" y2="280" stroke="#e5e7eb" stroke-width="1"/>
  <text x="642" y="305" font-family="Arial" font-size="12" fill="#ef4444">↓ 8%</text>
  <text x="676" y="305" font-family="Arial" font-size="12" fill="#6b7280">from previous period</text>
  
  <rect x="864" y="180" width="280" height="140" rx="8" fill="#ffffff" stroke="#e5e7eb" stroke-width="1"/>
  <rect x="882" y="200" width="40" height="40" rx="8" fill="#f0fdf4"/>
  <text x="902" y="225" font-family="Arial" font-size="16" fill="#10b981" font-weight="bold" text-anchor="middle">✓</text>
  <text x="938" y="215" font-family="Arial" font-size="14" fill="#6b7280">Files Analyzed</text>
  <text x="938" y="245" font-family="Arial" font-size="24" font-weight="bold" fill="#111827">42</text>
  <line x1="864" y1="280" x2="1144" y2="280" stroke="#e5e7eb" stroke-width="1"/>
  <text x="938" y="305" font-family="Arial" font-size="12" fill="#10b981">↑ 24%</text>
  <text x="972" y="305" font-family="Arial" font-size="12" fill="#6b7280">from previous period</text>
  
  <!-- Credit Consumption Chart -->
  <rect x="272" y="340" width="565" height="320" rx="8" fill="#ffffff" stroke="#e5e7eb" stroke-width="1"/>
  <text x="296" y="370" font-family="Arial" font-size="16" font-weight="bold" fill="#111827">Credit Consumption</text>
  
  <!-- Period selector -->
  <rect x="660" y="360" width="160" height="28" rx="6" fill="#ffffff" stroke="#d1d5db" stroke-width="1"/>
  <rect x="660" y="360" width="40" height="28" rx="6" fill="#2563eb"/>
  <text x="680" y="378" font-family="Arial" font-size="12" fill="#ffffff" text-anchor="middle">Day</text>
  <text x="720" y="378" font-family="Arial" font-size="12" fill="#6b7280" text-anchor="middle">Week</text>
  <text x="760" y="378" font-family="Arial" font-size="12" fill="#6b7280" text-anchor="middle">Month</text>
  <text x="800" y="378" font-family="Arial" font-size="12" fill="#6b7280" text-anchor="middle">Year</text>
  
  <!-- Credit usage indicator -->
  <rect x="296" y="390" width="50" height="50" rx="4" fill="#7c3aed" opacity="0.2"/>
  <text x="321" y="422" font-family="Arial" font-size="20" fill="#7c3aed" text-anchor="middle">$</text>
  <text x="356" y="405" font-family="Arial" font-size="12" fill="#6b7280">Credits Used / Total</text>
  <text x="356" y="430" font-family="Arial" font-size="18" font-weight="bold" fill="#111827">578 / 1000</text>
  
  <!-- Bar Chart -->
  <rect x="296" y="460" width="520" height="180" fill="#ffffff"/>
  <!-- Chart X-axis -->
  <line x1="296" y1="600" x2="816" y2="600" stroke="#e5e7eb" stroke-width="1"/>
  <text x="322" y="620" font-family="Arial" font-size="12" fill="#6b7280">Mon</text>
  <text x="372" y="620" font-family="Arial" font-size="12" fill="#6b7280">Tue</text>
  <text x="422" y="620" font-family="Arial" font-size="12" fill="#6b7280">Wed</text>
  <text x="472" y="620" font-family="Arial" font-size="12" fill="#6b7280">Thu</text>
  <text x="522" y="620" font-family="Arial" font-size="12" fill="#6b7280">Fri</text>
  <text x="572" y="620" font-family="Arial" font-size="12" fill="#6b7280">Sat</text>
  <text x="622" y="620" font-family="Arial" font-size="12" fill="#6b7280">Sun</text>
  
  <!-- Bars -->
  <rect x="310" y="520" width="24" height="80" rx="3" fill="#8b5cf6"/>
  <rect x="310" y="480" width="24" height="40" rx="3" fill="#c084fc"/>
  
  <rect x="360" y="500" width="24" height="100" rx="3" fill="#8b5cf6"/>
  <rect x="360" y="470" width="24" height="30" rx="3" fill="#c084fc"/>
  
  <rect x="410" y="540" width="24" height="60" rx="3" fill="#8b5cf6"/>
  <rect x="410" y="500" width="24" height="40" rx="3" fill="#c084fc"/>
  
  <rect x="460" y="570" width="24" height="30" rx="3" fill="#8b5cf6"/>
  <rect x="460" y="530" width="24" height="40" rx="3" fill="#c084fc"/>
  
  <rect x="510" y="490" width="24" height="110" rx="3" fill="#8b5cf6"/>
  <rect x="510" y="460" width="24" height="30" rx="3" fill="#c084fc"/>
  
  <rect x="560" y="520" width="24" height="80" rx="3" fill="#8b5cf6"/>
  <rect x="560" y="495" width="24" height="25" rx="3" fill="#c084fc"/>
  
  <rect x="610" y="550" width="24" height="50" rx="3" fill="#8b5cf6"/>
  <rect x="610" y="530" width="24" height="20" rx="3" fill="#c084fc"/>
  
  <!-- Legend -->
  <rect x="670" y="550" width="12" height="12" fill="#8b5cf6"/>
  <text x="690" y="560" font-family="Arial" font-size="12" fill="#111827">Chat Credits</text>
  <rect x="670" y="570" width="12" height="12" fill="#c084fc"/>
  <text x="690" y="580" font-family="Arial" font-size="12" fill="#111827">File Analysis</text>
  
  <!-- Query Distribution -->
  <rect x="853" y="340" width="290" height="320" rx="8" fill="#ffffff" stroke="#e5e7eb" stroke-width="1"/>
  <text x="877" y="370" font-family="Arial" font-size="16" font-weight="bold" fill="#111827">Query Distribution</text>
  
  <!-- Period selector -->
  <rect x="966" y="360" width="160" height="28" rx="6" fill="#ffffff" stroke="#d1d5db" stroke-width="1"/>
  <rect x="966" y="360" width="40" height="28" rx="6" fill="#2563eb"/>
  <text x="986" y="378" font-family="Arial" font-size="12" fill="#ffffff" text-anchor="middle">Day</text>
  <text x="1026" y="378" font-family="Arial" font-size="12" fill="#6b7280" text-anchor="middle">Week</text>
  <text x="1066" y="378" font-family="Arial" font-size="12" fill="#6b7280" text-anchor="middle">Month</text>
  <text x="1106" y="378" font-family="Arial" font-size="12" fill="#6b7280" text-anchor="middle">Year</text>
  
  <!-- Pie Chart -->
  <circle cx="998" cy="480" r="100" fill="none" stroke="#e5e7eb" stroke-width="1"/>
  <path d="M998 480 L998 380 A100 100 0 0 1 1082 520 Z" fill="#4f46e5"/>
  <path d="M998 480 L1082 520 A100 100 0 0 1 950 565 Z" fill="#7c3aed"/>
  <path d="M998 480 L950 565 A100 100 0 0 1 914 430 Z" fill="#06b6d4"/>
  <path d="M998 480 L914 430 A100 100 0 0 1 998 380 Z" fill="#0ea5e9"/>
  
  <!-- Legend -->
  <rect x="880" y="600" width="12" height="12" fill="#4f46e5"/>
  <text x="900" y="610" font-family="Arial" font-size="12" fill="#111827">General (38%)</text>
  
  <rect x="880" y="620" width="12" height="12" fill="#7c3aed"/>
  <text x="900" y="630" font-family="Arial" font-size="12" fill="#111827">Technical (24%)</text>
  
  <rect x="1000" y="600" width="12" height="12" fill="#06b6d4"/>
  <text x="1020" y="610" font-family="Arial" font-size="12" fill="#111827">Financial (22%)</text>
  
  <rect x="1000" y="620" width="12" height="12" fill="#0ea5e9"/>
  <text x="1020" y="630" font-family="Arial" font-size="12" fill="#111827">Legal (16%)</text>
  
  <!-- Top Documents -->
  <rect x="272" y="680" width="420" height="320" rx="8" fill="#ffffff" stroke="#e5e7eb" stroke-width="1"/>
  <text x="296" y="710" font-family="Arial" font-size="16" font-weight="bold" fill="#111827">Top Documents</text>
  
  <!-- Document List -->
  <line x1="296" y1="730" x2="668" y2="730" stroke="#e5e7eb" stroke-width="1"/>
  
  <!-- Document 1 -->
  <rect x="296" y="750" width="30" height="30" rx="4" fill="#dbeafe"/>
  <text x="311" y="770" font-family="Arial" font-size="14" fill="#3b82f6" text-anchor="middle">1</text>
  <text x="336" y="760" font-family="Arial" font-size="14" font-weight="bold" fill="#111827">Financial Report Q3.pdf</text>
  <text x="336" y="780" font-family="Arial" font-size="12" fill="#6b7280">Financial analysis of third quarter performance</text>
  <rect x="620" y="750" width="32" height="18" rx="9" fill="#dcfce7"/>
  <text x="636" y="764" font-family="Arial" font-size="10" fill="#16a34a" text-anchor="middle">142</text>
  
  <!-- Document 2 -->
  <line x1="296" y1="800" x2="668" y2="800" stroke="#e5e7eb" stroke-width="1"/>
  <rect x="296" y="820" width="30" height="30" rx="4" fill="#dbeafe"/>
  <text x="311" y="840" font-family="Arial" font-size="14" fill="#3b82f6" text-anchor="middle">2</text>
  <text x="336" y="830" font-family="Arial" font-size="14" font-weight="bold" fill="#111827">Product Roadmap 2023.docx</text>
  <text x="336" y="850" font-family="Arial" font-size="12" fill="#6b7280">Strategic product development timeline</text>
  <rect x="620" y="820" width="32" height="18" rx="9" fill="#dcfce7"/>
  <text x="636" y="834" font-family="Arial" font-size="10" fill="#16a34a" text-anchor="middle">98</text>
  
  <!-- Document 3 -->
  <line x1="296" y1="870" x2="668" y2="870" stroke="#e5e7eb" stroke-width="1"/>
  <rect x="296" y="890" width="30" height="30" rx="4" fill="#dbeafe"/>
  <text x="311" y="910" font-family="Arial" font-size="14" fill="#3b82f6" text-anchor="middle">3</text>
  <text x="336" y="900" font-family="Arial" font-size="14" font-weight="bold" fill="#111827">Legal Guidelines 2023.pdf</text>
  <text x="336" y="920" font-family="Arial" font-size="12" fill="#6b7280">Updated company compliance documents</text>
  <rect x="620" y="890" width="32" height="18" rx="9" fill="#dcfce7"/>
  <text x="636" y="904" font-family="Arial" font-size="10" fill="#16a34a" text-anchor="middle">87</text>
  
  <!-- Document 4 -->
  <line x1="296" y1="940" x2="668" y2="940" stroke="#e5e7eb" stroke-width="1"/>
  <rect x="296" y="960" width="30" height="30" rx="4" fill="#dbeafe"/>
  <text x="311" y="980" font-family="Arial" font-size="14" fill="#3b82f6" text-anchor="middle">4</text>
  <text x="336" y="970" font-family="Arial" font-size="14" font-weight="bold" fill="#111827">Customer Survey Results.xlsx</text>
  <text x="336" y="990" font-family="Arial" font-size="12" fill="#6b7280">Analysis of customer feedback and satisfaction</text>
  <rect x="620" y="960" width="32" height="18" rx="9" fill="#dcfce7"/>
  <text x="636" y="974" font-family="Arial" font-size="10" fill="#16a34a" text-anchor="middle">64</text>
  
  <!-- Recent Activity -->
  <rect x="708" y="680" width="435" height="320" rx="8" fill="#ffffff" stroke="#e5e7eb" stroke-width="1"/>
  <text x="732" y="710" font-family="Arial" font-size="16" font-weight="bold" fill="#111827">Recent Activity</text>
  
  <!-- Activity Timeline -->
  <line x1="752" y1="760" x2="752" y2="960" stroke="#e5e7eb" stroke-width="2"/>
  
  <!-- Activity 1 -->
  <circle cx="752" cy="760" r="10" fill="#3b82f6" stroke="#ffffff" stroke-width="2"/>
  <text x="780" y="750" font-family="Arial" font-size="14" fill="#6b7280">Chat conversation started by</text>
  <text x="780" y="770" font-family="Arial" font-size="14" font-weight="bold" fill="#111827">John Smith</text>
  <text x="1090" y="760" font-family="Arial" font-size="12" fill="#6b7280" text-anchor="end">10:23 AM</text>
  
  <!-- Activity 2 -->
  <circle cx="752" cy="820" r="10" fill="#10b981" stroke="#ffffff" stroke-width="2"/>
  <text x="780" y="810" font-family="Arial" font-size="14" fill="#6b7280">File uploaded by</text>
  <text x="780" y="830" font-family="Arial" font-size="14" font-weight="bold" fill="#111827">Maria Rodriguez</text>
  <text x="1090" y="820" font-family="Arial" font-size="12" fill="#6b7280" text-anchor="end">Yesterday</text>
  
  <!-- Activity 3 -->
  <circle cx="752" cy="880" r="10" fill="#8b5cf6" stroke="#ffffff" stroke-width="2"/>
  <text x="780" y="870" font-family="Arial" font-size="14" fill="#6b7280">New user account created by</text>
  <text x="780" y="890" font-family="Arial" font-size="14" font-weight="bold" fill="#111827">Admin</text>
  <text x="1090" y="880" font-family="Arial" font-size="12" fill="#6b7280" text-anchor="end">Sep 12</text>
  
  <!-- Activity 4 -->
  <circle cx="752" cy="940" r="10" fill="#3b82f6" stroke="#ffffff" stroke-width="2"/>
  <text x="780" y="930" font-family="Arial" font-size="14" fill="#6b7280">Chat integrated with Google Drive by</text>
  <text x="780" y="950" font-family="Arial" font-size="14" font-weight="bold" fill="#111827">Alex Chen</text>
  <text x="1090" y="940" font-family="Arial" font-size="12" fill="#6b7280" text-anchor="end">Sep 10</text>
</svg>
